<svg xmlns="http://www.w3.org/2000/svg" viewBox="0 0 512 512">
  <!-- ChefSpAIce App Icon - Chef hat with AI sparkle -->
  <defs>
    <linearGradient id="hatGradient" x1="0%" y1="0%" x2="100%" y2="100%">
      <stop offset="0%" style="stop-color:#4CAF50"/>
      <stop offset="100%" style="stop-color:#2E7D32"/>
    </linearGradient>
  </defs>
  <!-- Background circle -->
  <circle cx="256" cy="256" r="240" fill="url(#hatGradient)"/>
  <!-- Chef hat base -->
  <rect x="136" y="280" width="240" height="80" rx="8" fill="white"/>
  <!-- Chef hat top puffs -->
  <circle cx="200" cy="200" r="60" fill="white"/>
  <circle cx="256" cy="180" r="70" fill="white"/>
  <circle cx="312" cy="200" r="60" fill="white"/>
  <!-- Hat band -->
  <rect x="136" y="280" width="240" height="20" fill="#E8F5E9"/>
  <!-- AI Sparkle -->
  <path d="M400 120 L408 140 L428 148 L408 156 L400 176 L392 156 L372 148 L392 140 Z" fill="#FFD700"/>
  <path d="M100 340 L105 352 L117 357 L105 362 L100 374 L95 362 L83 357 L95 352 Z" fill="#FFD700"/>
  <!-- Spoon accent -->
  <ellipse cx="256" cy="380" rx="40" ry="12" fill="#E8F5E9"/>
</svg>