<?xml version="1.0" encoding="UTF-8"?>
<svg width="1080" height="1080" viewBox="0 0 1080 1080" fill="none" xmlns="http://www.w3.org/2000/svg">
  <!-- Instagram Square Post Template -->
  <defs>
    <linearGradient id="bgGradient" x1="0%" y1="0%" x2="100%" y2="100%">
      <stop offset="0%" style="stop-color:#f8f9fa;stop-opacity:1" />
      <stop offset="100%" style="stop-color:#e8f5e9;stop-opacity:1" />
    </linearGradient>
    <linearGradient id="primaryGradient" x1="0%" y1="0%" x2="100%" y2="100%">
      <stop offset="0%" style="stop-color:#6b8e23;stop-opacity:1" />
      <stop offset="100%" style="stop-color:#5a7c1d;stop-opacity:1" />
    </linearGradient>
    <filter id="shadow" x="-20%" y="-20%" width="140%" height="140%">
      <feGaussianBlur in="SourceAlpha" stdDeviation="10"/>
      <feOffset dx="0" dy="10" result="offsetblur"/>
      <feComponentTransfer>
        <feFuncA type="linear" slope="0.3"/>
      </feComponentTransfer>
      <feMerge>
        <feMergeNode/>
        <feMergeNode in="SourceGraphic"/>
      </feMerge>
    </filter>
  </defs>
  
  <!-- Background -->
  <rect width="1080" height="1080" fill="url(#bgGradient)"/>
  
  <!-- Decorative circles -->
  <circle cx="150" cy="150" r="100" fill="#6b8e23" opacity="0.1"/>
  <circle cx="930" cy="930" r="150" fill="#7c8f4d" opacity="0.1"/>
  <circle cx="950" cy="200" r="80" fill="#ffd700" opacity="0.1"/>
  
  <!-- Main Content Area -->
  <g transform="translate(540, 400)">
    <!-- Logo Icon -->
    <g transform="translate(0, -150)">
      <circle cx="0" cy="0" r="100" fill="url(#primaryGradient)" filter="url(#shadow)"/>
      <g transform="scale(1.5)">
        <!-- Chef Hat -->
        <ellipse cx="0" cy="-20" rx="42" ry="35" fill="white" opacity="0.95"/>
        <path d="M -38 -20 Q -42 -30, -35 -36 Q -24 -42, -12 -38 Q 0 -42, 12 -38 Q 24 -42, 35 -36 Q 42 -30, 38 -20" 
              fill="white" opacity="0.95"/>
        <rect x="-42" y="8" width="84" height="20" rx="2" fill="white" opacity="0.95"/>
        <!-- AI Sparkle -->
        <g transform="translate(28, -28)">
          <path d="M 0 -6 L 1.5 -1.5 L 6 0 L 1.5 1.5 L 0 6 L -1.5 1.5 L -6 0 L -1.5 -1.5 Z" 
                fill="#ffd700" opacity="0.9"/>
        </g>
      </g>
    </g>
    
    <!-- Main Text -->
    <text x="0" y="50" font-family="Ubuntu, sans-serif" font-size="72" font-weight="700" fill="#2c3e50" text-anchor="middle">
      ChefSp<tspan fill="#ffd700">AI</tspan>ce
    </text>
    
    <!-- Tagline -->
    <text x="0" y="100" font-family="Ubuntu, sans-serif" font-size="28" font-weight="400" fill="#5a7c1d" text-anchor="middle">
      Your Smart Kitchen Assistant
    </text>
    
    <!-- Feature Icons Row -->
    <g transform="translate(-300, 180)">
      <!-- Feature 1 -->
      <g transform="translate(0, 0)">
        <rect x="-60" y="-60" width="120" height="120" rx="20" fill="white" filter="url(#shadow)"/>
        <text x="0" y="10" font-family="Ubuntu, sans-serif" font-size="40" text-anchor="middle">📦</text>
        <text x="0" y="40" font-family="Ubuntu, sans-serif" font-size="14" fill="#666" text-anchor="middle">Inventory</text>
      </g>
      
      <!-- Feature 2 -->
      <g transform="translate(200, 0)">
        <rect x="-60" y="-60" width="120" height="120" rx="20" fill="white" filter="url(#shadow)"/>
        <text x="0" y="10" font-family="Ubuntu, sans-serif" font-size="40" text-anchor="middle">🤖</text>
        <text x="0" y="40" font-family="Ubuntu, sans-serif" font-size="14" fill="#666" text-anchor="middle">AI Recipes</text>
      </g>
      
      <!-- Feature 3 -->
      <g transform="translate(400, 0)">
        <rect x="-60" y="-60" width="120" height="120" rx="20" fill="white" filter="url(#shadow)"/>
        <text x="0" y="10" font-family="Ubuntu, sans-serif" font-size="40" text-anchor="middle">📊</text>
        <text x="0" y="40" font-family="Ubuntu, sans-serif" font-size="14" fill="#666" text-anchor="middle">Nutrition</text>
      </g>
      
      <!-- Feature 4 -->
      <g transform="translate(600, 0)">
        <rect x="-60" y="-60" width="120" height="120" rx="20" fill="white" filter="url(#shadow)"/>
        <text x="0" y="10" font-family="Ubuntu, sans-serif" font-size="40" text-anchor="middle">🛒</text>
        <text x="0" y="40" font-family="Ubuntu, sans-serif" font-size="14" fill="#666" text-anchor="middle">Shopping</text>
      </g>
    </g>
  </g>
  
  <!-- CTA Button -->
  <g transform="translate(540, 850)">
    <rect x="-150" y="-35" width="300" height="70" rx="35" fill="url(#primaryGradient)" filter="url(#shadow)"/>
    <text x="0" y="8" font-family="Ubuntu, sans-serif" font-size="24" font-weight="600" fill="white" text-anchor="middle">
      Try It Free Today
    </text>
  </g>
  
  <!-- Bottom Text -->
  <text x="540" y="980" font-family="Ubuntu, sans-serif" font-size="20" fill="#999" text-anchor="middle">
    Reduce waste. Save money. Eat better.
  </text>
</svg>