<?xml version="1.0" encoding="UTF-8"?>
<svg width="29" height="29" viewBox="0 0 29 29" xmlns="http://www.w3.org/2000/svg">
  <defs>
    <!-- Glass overlay gradient (matches AppLogo) -->
    <linearGradient id="glassGradient" x1="0%" y1="0%" x2="100%" y2="100%">
      <stop offset="0%" style="stop-color:rgba(255,255,255,0.30)"/>
      <stop offset="40%" style="stop-color:rgba(255,255,255,0.10)"/>
      <stop offset="100%" style="stop-color:rgba(255,255,255,0.15)"/>
    </linearGradient>
    
    <!-- Specular highlight gradient (matches AppLogo) -->
    <linearGradient id="specularHighlight" x1="50%" y1="0%" x2="50%" y2="100%">
      <stop offset="0%" style="stop-color:rgba(255,255,255,0.5)"/>
      <stop offset="25%" style="stop-color:rgba(255,255,255,0.2)"/>
      <stop offset="50%" style="stop-color:rgba(255,255,255,0)"/>
    </linearGradient>
    
    <!-- Edge highlight gradient (matches AppLogo border) -->
    <linearGradient id="edgeHighlight" x1="50%" y1="0%" x2="50%" y2="100%">
      <stop offset="0%" style="stop-color:rgba(255,255,255,0.5)"/>
      <stop offset="50%" style="stop-color:rgba(255,255,255,0.25)"/>
      <stop offset="100%" style="stop-color:rgba(255,255,255,0.15)"/>
    </linearGradient>
    
    <!-- Inner glow filter -->
    <filter id="innerGlow" x="-50%" y="-50%" width="200%" height="200%">
      <feGaussianBlur stdDeviation="0.58" result="blur"/>
      <feComposite in="SourceGraphic" in2="blur" operator="over"/>
    </filter>
    
    <!-- Icon drop shadow -->
    <filter id="iconShadow" x="-30%" y="-30%" width="160%" height="160%">
      <feGaussianBlur in="SourceAlpha" stdDeviation="0.7250000000000001" result="blur1"/>
      <feOffset in="blur1" dx="0" dy="0.58" result="offset1"/>
      <feColorMatrix in="offset1" type="matrix" values="0 0 0 0 0  0 0 0 0 0  0 0 0 0 0  0 0 0 0.35 0" result="shadow1"/>
      <feGaussianBlur in="SourceAlpha" stdDeviation="0.34800000000000003" result="blur2"/>
      <feOffset in="blur2" dx="0" dy="0.232" result="offset2"/>
      <feColorMatrix in="offset2" type="matrix" values="0 0 0 0 0  0 0 0 0 0  0 0 0 0 0  0 0 0 0.25 0" result="shadow2"/>
      <feMerge>
        <feMergeNode in="shadow1"/>
        <feMergeNode in="shadow2"/>
        <feMergeNode in="SourceGraphic"/>
      </feMerge>
    </filter>
    
    <!-- Clip path for rounded rectangle -->
    <clipPath id="roundedClip">
      <rect x="0" y="0" width="29" height="29" rx="6" ry="6"/>
    </clipPath>
  </defs>
  
  <!-- Background with green + glass effect -->
  <g clip-path="url(#roundedClip)">
    <!-- Solid green base (matches AppLogo #1a2e05) -->
    <rect x="0" y="0" width="29" height="29" fill="#1a2e05"/>
    
    <!-- Glass overlay -->
    <rect x="0" y="0" width="29" height="29" fill="url(#glassGradient)"/>
    
    <!-- Specular highlight (top half) -->
    <rect x="0" y="0" width="29" height="13.05" fill="url(#specularHighlight)"/>
    
    <!-- Inner glow overlay -->
    <rect x="0" y="0" width="29" height="29" fill="rgba(255,255,255,0.06)" filter="url(#innerGlow)"/>
  </g>
  
  <!-- Border/edge highlight -->
  <rect x="1" y="1" width="27" height="27" rx="5" ry="5" 
        fill="none" stroke="url(#edgeHighlight)" stroke-width="2"/>
  
  <!-- Outer border -->
  <rect x="0" y="0" width="29" height="29" rx="6" ry="6" 
        fill="none" stroke="rgba(255,255,255,0.4)" stroke-width="1.5"/>
  
  <!-- Chef hat icon with shadow (no background) -->
  <g transform="translate(6.192708333333333, 6.691145833333333) scale(0.6645833333333334)" filter="url(#iconShadow)">
    <path d="M12.5,1.5C10.73,1.5 9.17,2.67 8.67,4.37C8.14,4.13 7.58,4 7,4A4,4 0 0,0 3,8C3,9.82 4.24,11.41 6,11.87V19H19V11.87C20.76,11.41 22,9.82 22,8A4,4 0 0,0 18,4C17.42,4 16.86,4.13 16.33,4.37C15.83,2.67 14.27,1.5 12.5,1.5M12,10.5H13V17.5H12V10.5M9,12.5H10V17.5H9V12.5M15,12.5H16V17.5H15V12.5M6,20V21A1,1 0 0,0 7,22H18A1,1 0 0,0 19,21V20H6Z" fill="rgba(255,255,255,0.85)" fill-rule="evenodd"/>
  </g>
</svg>