<svg width="32" height="32" viewBox="0 0 32 32" fill="none" xmlns="http://www.w3.org/2000/svg">
  <!-- Standard 32x32 favicon -->
  <rect width="32" height="32" rx="6" fill="#6b8e23"/>
  
  <!-- Chef Hat -->
  <g transform="translate(16, 18)">
    <!-- Hat Top -->
    <ellipse cx="0" cy="-4" rx="8" ry="7" fill="white"/>
    <path d="M -7 -4 Q -8 -7, -6.5 -8.5 Q -4 -10, -2 -9 Q 0 -10, 2 -9 Q 4 -10, 6.5 -8.5 Q 8 -7, 7 -4" fill="white"/>
    
    <!-- Hat Band -->
    <rect x="-8" y="2" width="16" height="4" rx="0.5" fill="white"/>
    
    <!-- Hat Details -->
    <line x1="-5" y1="-3" x2="-5" y2="2" stroke="#f0f0f0" stroke-width="0.5" opacity="0.6"/>
    <line x1="0" y1="-4" x2="0" y2="2" stroke="#f0f0f0" stroke-width="0.5" opacity="0.6"/>
    <line x1="5" y1="-3" x2="5" y2="2" stroke="#f0f0f0" stroke-width="0.5" opacity="0.6"/>
    
    <!-- AI Sparkle -->
    <path d="M 5 -6 L 5.5 -5 L 6.5 -5 L 5.5 -4.5 L 5 -3.5 L 4.5 -4.5 L 3.5 -5 L 4.5 -5 Z" fill="#ffd700"/>
  </g>
</svg>